<?xml version="1.0" encoding="utf-8"?>
<!-- Generator: Adobe Illustrator 21.1.0, SVG Export Plug-In . SVG Version: 6.00 Build 0)  -->
<svg version="1.1" id="Layer_1" xmlns="http://www.w3.org/2000/svg" xmlns:xlink="http://www.w3.org/1999/xlink" x="0px" y="0px"
	 viewBox="0 0 463 149" style="enable-background:new 0 0 463 149;" xml:space="preserve">
<style type="text/css">
	.st0{fill:#333333;}
</style>
<g>
	<path class="st0" d="M284.4,49.1c1.9,0,3.4,0.6,4.7,1.9c1.3,1.3,2,2.8,2,4.7c0,1.8-0.7,3.4-2,4.7c-1.3,1.3-2.9,2-4.7,2
		c-1.7,0-3.2-0.7-4.6-2c-1.3-1.3-2-2.9-2-4.7c0-1.7,0.7-3.3,2-4.6C281.2,49.7,282.7,49.1,284.4,49.1z M279.6,65h9.7v49.2h-9.7V65z"
		/>
	<path class="st0" d="M296.4,39.5h9.7v74.7h-9.7V39.5z"/>
	<path class="st0" d="M311.9,39.5h9.7v74.7h-9.7V39.5z"/>
	<path class="st0" d="M361,84.6v20.9c0,1.7,0.6,2.5,1.7,2.5c1.2,0,3-0.9,5.5-2.6v5.9c-2.2,1.4-4,2.4-5.3,2.9
		c-1.3,0.5-2.7,0.8-4.2,0.8c-4.2,0-6.6-1.6-7.4-4.9c-4.1,3.2-8.5,4.8-13.2,4.8c-3.4,0-6.3-1.1-8.6-3.4c-2.3-2.3-3.4-5.1-3.4-8.5
		c0-3.1,1.1-5.9,3.3-8.3c2.2-2.4,5.4-4.4,9.5-5.8l12.5-4.3V82c0-5.9-3-8.9-8.9-8.9c-5.3,0-10.5,2.7-15.5,8.2V70.7
		c3.8-4.5,9.2-6.7,16.3-6.7c5.3,0,9.6,1.4,12.8,4.2c1.1,0.9,2,2.1,2.9,3.5c0.9,1.5,1.4,3,1.6,4.4S361,80.5,361,84.6z M351.5,104.5
		V89.9l-6.5,2.5c-3.3,1.3-5.7,2.6-7,4c-1.4,1.3-2.1,3-2.1,5c0,2,0.7,3.7,2,5c1.3,1.3,3,1.9,5.1,1.9
		C345.9,108.3,348.8,107,351.5,104.5z"/>
	<path class="st0" d="M370.3,82c0-5.2,1.9-9.4,5.8-12.4c3.8-3.1,9.1-4.6,15.7-4.6H412v7.6h-9.9c1.9,2,3.3,3.7,4,5.3
		c0.7,1.6,1.1,3.4,1.1,5.5c0,2.6-0.7,5.1-2.2,7.6c-1.5,2.5-3.3,4.4-5.6,5.7c-2.3,1.3-6.1,2.4-11.3,3.2c-3.7,0.5-5.5,1.8-5.5,3.8
		c0,1.1,0.7,2.1,2.1,2.8c1.4,0.7,3.9,1.5,7.5,2.3c6,1.3,9.9,2.4,11.6,3.1c1.7,0.7,3.3,1.8,4.7,3.2c2.4,2.4,3.5,5.3,3.5,8.9
		c0,4.7-2.1,8.4-6.2,11.2c-4.2,2.8-9.7,4.2-16.7,4.2c-7,0-12.6-1.4-16.8-4.2c-4.2-2.8-6.3-6.6-6.3-11.3c0-6.7,4.1-11,12.4-12.9
		c-3.3-2.1-4.9-4.2-4.9-6.3c0-1.6,0.7-3,2.1-4.3c1.4-1.3,3.3-2.2,5.7-2.8C373.9,94.4,370.3,89.2,370.3,82z M386.3,116.5
		c-3.3,0-6,0.7-8,2.1c-2.1,1.4-3.1,3.2-3.1,5.4c0,5.1,4.6,7.6,13.7,7.6c4.3,0,7.7-0.6,10-1.9c2.4-1.3,3.6-3.1,3.6-5.4
		c0-2.3-1.5-4.1-4.5-5.6C394.9,117.2,391,116.5,386.3,116.5z M388.6,73.4c-2.6,0-4.9,0.9-6.7,2.7c-1.9,1.8-2.8,3.9-2.8,6.4
		c0,2.5,0.9,4.6,2.7,6.3c1.8,1.7,4.1,2.5,6.9,2.5c2.7,0,5-0.8,6.9-2.5c1.8-1.7,2.8-3.8,2.8-6.3c0-2.6-0.9-4.7-2.8-6.4
		C393.7,74.3,391.4,73.4,388.6,73.4z"/>
	<path class="st0" d="M455,90.4h-34.6c0.3,4.7,1.8,8.5,4.7,11.2c2.9,2.8,6.7,4.2,11.3,4.2c6.4,0,12.3-2,17.8-6v9.5
		c-3,2-6,3.4-8.9,4.3c-2.9,0.9-6.4,1.3-10.4,1.3c-5.4,0-9.8-1.1-13.2-3.4c-3.4-2.2-6-5.3-8.1-9.1c-2-3.8-3-8.2-3-13.2
		c0-7.5,2.1-13.6,6.4-18.3c4.2-4.7,9.8-7,16.5-7c6.5,0,11.7,2.3,15.6,6.8c3.9,4.6,5.8,10.7,5.8,18.4V90.4z M420.6,84.6h24.8
		c-0.3-3.9-1.4-6.9-3.5-9c-2.1-2.1-4.9-3.2-8.3-3.2c-3.5,0-6.4,1.1-8.6,3.2C422.7,77.7,421.3,80.7,420.6,84.6z"/>
	<path class="st0" d="M165.1,78.5v35.7h-9.8V86.8c0-5.5-0.7-9.3-2.2-11.4c-1.5-2.2-4-3.2-7.6-3.2c-2,0-3.9,0.5-5.6,1.4
		c-1.7,0.9-3.6,2.6-5.8,4.9v35.7h-9.7V65h9.7v6.5c5-5,9.8-7.4,14.6-7.4c6.2,0,11.1,3,14.5,8.9c5.2-6,10.6-9,16.3-9
		c4.8,0,8.7,1.8,11.8,5.2c3.1,3.5,4.6,8.8,4.6,16v29h-9.7V85c0-4.1-0.8-7.2-2.5-9.4c-1.7-2.2-4.1-3.3-7.2-3.3
		C172.4,72.4,168.6,74.4,165.1,78.5z"/>
	<path class="st0" d="M230.1,65h10.9l-34.9,74.3h-10.9l16.7-35.7L193,65h11.1l13.3,27.8L230.1,65z"/>
	<polygon class="st0" points="267,65 254.2,95.3 242.4,68.3 236.9,79.9 252.6,115.1 255.9,115.1 277.6,65 	"/>
	<path class="st0" d="M7,8.7v105.4h105.4V8.7H7z M99.2,100.8H20.3V21.9h78.9V100.8z"/>
	<path class="st0" d="M81.4,66c-3.1,9-11.6,15.5-21.7,15.5S41.1,75.1,38,66h-9.7c3.4,14.3,16.2,24.9,31.5,24.9
		C75,90.9,87.8,80.3,91.2,66H81.4z"/>
</g>
</svg>
